<?xml version="1.0" encoding="utf-8"?>
<!-- Generator: Adobe Illustrator 24.3.0, SVG Export Plug-In . SVG Version: 6.00 Build 0)  -->
<svg version="1.1" id="Capa_1" xmlns="http://www.w3.org/2000/svg" xmlns:xlink="http://www.w3.org/1999/xlink" x="0px" y="0px"
	 viewBox="0 0 855 127" style="enable-background:new 0 0 855 127;" xml:space="preserve">
<style type="text/css">
	.st0{fill:#8D2E0F;}
	.st1{fill:#8E2D0F;}
	.st2{fill:#332A21;}
	.st3{fill:#8E2B0F;}
	.st4{fill:#322A23;}
	.st5{fill:#8F2F10;}
	.st6{fill:#8D2F10;}
	.st7{fill:#322A21;}
	.st8{fill:#2E2925;}
	.st9{fill:#8D2F0E;}
	.st10{fill:#342A23;}
	.st11{fill:#A5733A;}
	.st12{fill:#A3763A;}
	.st13{fill:#A3763B;}
	.st14{fill:#A0753A;}
	.st15{fill:#9E743C;}
	.st16{fill:#A7723A;}
	.st17{fill:#A4733A;}
</style>
<g>
	<path class="st0" d="M288.92,82.74c0,2.02,0,4.04,0,6.06c0,13.07-2.32,14.78-15.91,16.43c-12.29,1.49-23.9,1.93-34.96-5.02
		c-9.87-6.21-13.22-15.85-14.4-26.26c-1.74-15.34,2.77-35.14,19.86-42.13c12.38-5.06,24.88-3.44,37.35-0.94
		c4.48,0.9,2.83,5.11,2.81,8c-0.04,4.62-3.15,2.61-5.53,2.24c-8.22-1.25-16.43-3.51-24.73-0.41c-0.53,0.2-1.15,0.13-1.7,0.29
		c-11.92,3.44-17.23,16.37-14.72,35.84c1.23,9.5,10.86,17.57,21.3,17.79c2.6,0.06,5.2,0.04,7.8,0c11.99-0.15,11.6-0.55,12.54-12.06
		c0.78-9.46-3.03-11.54-11.3-10.64c-2.95,0.32-7.63,1.81-7.83-3.87c-0.22-6.34,4.8-4.14,8.11-4.62c0.57-0.08,1.15-0.01,1.73-0.01
		C288.91,63.38,288.91,63.38,288.92,82.74z"/>
	<path class="st1" d="M162.42,67.23c0-10.39,0.18-20.78-0.08-31.16c-0.12-4.96,1.1-7.38,6.69-7.25c13.27,0.31,26.55,0.12,39.83,0.09
		c3.8-0.01,6.92,0.53,7.11,5.4c0.21,5.53-3.62,4.87-7.06,4.87c-9.24,0.02-18.48,0.2-27.71-0.07c-4.82-0.14-6.45,1.53-6.62,6.44
		C174,61.71,173.8,61.7,189.61,61.72c4.04,0.01,8.1-0.21,12.12,0.09c3.78,0.29,9.42-2.25,9.19,5.3c-0.23,7.58-5.99,4.59-9.62,4.82
		c-6.61,0.42-13.28,0.33-19.91,0.08c-4.62-0.17-6.85,1.11-6.78,6.26c0.29,20.41-1.68,16.03,15.58,16.45
		c6.63,0.16,13.28,0.07,19.92,0.05c3.89-0.01,5.82,1.76,5.85,5.76c0.03,4.13-2.55,4.54-5.74,4.54c-13.85-0.04-27.71-0.17-41.56,0.06
		c-5.08,0.08-6.41-2.09-6.31-6.75C162.58,88.01,162.43,77.62,162.42,67.23z"/>
	<path class="st0" d="M363.5,104.99c-5.3,0.94-7.03-2.76-7.85-6.93c-1.94-9.92-7.53-14.18-17.65-12.23c-1.67,0.32-3.51,0.34-5.16,0
		c-10.2-2.1-15.59,2.57-17.72,12.19c-0.37,1.65-0.98,3.38-1.95,4.75c-2.73,3.87-6.98,2.78-10.22,1.72
		c-3.59-1.17-1.22-4.48-0.41-6.64c7.98-21.22,16.3-42.32,24-63.63c1.87-5.18,5.11-5.26,9.3-5.37c4.46-0.12,7.27,0.83,9.03,5.76
		c7.65,21.34,15.67,42.55,23.94,63.66C371.22,104.39,368.9,105.47,363.5,104.99z"/>
	<path class="st2" d="M476.2,69.28c-0.01-7.79,0.08-15.59-0.04-23.38c-0.07-4.27,1.57-6.48,6.06-6.39
		c8.64,0.16,17.26-0.4,25.87,1.24c9.59,1.82,15.69,7.04,17.53,16.64c1.58,8.28,1.63,16.74,0.06,24.97c-2,10.44-10.36,16.74-22,17.25
		c-6.92,0.3-13.87-0.2-20.78,0.21c-5.59,0.33-7.05-2.16-6.71-7.17c0.28-4.02,0.03-8.08,0.02-12.12
		C476.2,76.78,476.21,73.03,476.2,69.28z"/>
	<path class="st3" d="M612.42,99.66c-18.64-0.18-16.38,2.55-16.51-16.46c-0.08-12.08,0.16-24.16-0.1-36.23
		c-0.12-5.61,2-7.78,7.59-7.54c7.45,0.31,14.89,0.26,22.35,1.09c9.4,1.04,15.63,5.53,18.45,14.34c3.13,9.79,3.05,19.9,0.29,29.68
		c-2.87,10.15-10.87,14.32-20.85,15.08C619.91,99.89,616.16,99.66,612.42,99.66z"/>
	<path class="st4" d="M715.44,68.98c0-7.77,0.09-15.54-0.03-23.31c-0.07-4.38,1.82-6.36,6.21-6.17c8.6,0.38,17.2-0.46,25.83,0.97
		c6.94,1.15,12.41,3.84,13.95,10.85c1.68,7.65,2.64,16.01-4.86,21.34c-4.38,3.11-4.87,5.17-1.85,9.45
		c2.27,3.22,3.54,7.22,4.81,11.02c0.66,1.97,4.01,4.86-0.2,6.21c-2.73,0.88-6.42,1.61-8.32-2.23c-1.66-3.35-3.3-6.71-4.86-10.11
		c-3.34-7.27-9.72-10.13-17.18-8.02c-3.04,0.86-3.16,2.89-3.19,5.25c-0.03,3.17-0.04,6.33-0.03,9.5c0.01,2.99,0.08,5.8-4.2,6
		c-4.22,0.19-5.83-2.15-5.9-5.7c-0.17-8.34-0.06-16.69-0.06-25.04C715.52,68.98,715.48,68.98,715.44,68.98z"/>
	<path class="st5" d="M113.84,62.14c0,7.49,0.45,15.02-0.13,22.47c-0.6,7.65,1.49,11.11,9.87,10.28c7.42-0.73,14.98-0.08,22.47-0.17
		c3.66-0.05,6.07,0.7,6.07,5.16c0,4.4-2.28,5.25-6,5.22c-13.26-0.09-26.53-0.19-39.78,0.05c-5.07,0.09-6.35-2.08-6.31-6.73
		c0.17-21.04,0.25-42.08-0.02-63.11c-0.07-5.82,2.71-6.45,7.42-6.51c4.88-0.06,6.64,1.67,6.49,6.55
		C113.64,44.27,113.84,53.21,113.84,62.14z"/>
	<path class="st6" d="M37.69,67.15c0-10.36,0.17-20.73-0.07-31.08c-0.11-4.9,0.98-7.49,6.64-7.29c5.13,0.19,7.24,2.05,7.19,7.23
		c-0.15,16.69,0.24,33.4-0.19,50.08c-0.18,6.79,1.82,9.28,8.75,8.78c7.73-0.56,15.54-0.1,23.31-0.12c3.63-0.01,6.08,1.14,6.3,5.32
		c0.24,4.63-2.59,5.03-6.1,5.02c-13.24-0.05-26.49-0.18-39.73,0.04c-5.21,0.09-6.24-2.4-6.16-6.9
		C37.82,87.88,37.68,77.52,37.69,67.15z"/>
	<path class="st7" d="M677.74,39.58c5.03-0.36,7.14,2.55,8.58,6.3c6.08,15.85,12.22,31.67,18.16,47.58
		c0.66,1.77,3.13,4.61-0.31,5.82c-2.5,0.88-5.71,1.49-8-1.17c-0.55-0.64-0.8-1.53-1.28-2.25c-2.38-3.53-1.54-9.89-5.94-10.93
		c-6.02-1.41-12.57-0.6-18.89-0.69c-3.57-0.05-4.85,2.58-5.98,5.32c-1.09,2.66-1.91,5.47-3.34,7.93c-1.79,3.09-5.13,2.7-7.76,1.83
		c-3.43-1.14-1.34-3.81-0.61-5.75c6.19-16.42,12.51-32.8,18.66-49.23C672.32,40.86,674.39,39.05,677.74,39.58z"/>
	<path class="st8" d="M558.15,84.57c-9.5-2.68-14.63,1.26-16.4,10.7c-1.07,5.7-6.07,5.31-9.64,4c-4.23-1.55-0.75-5.07,0.04-7.22
		c5.75-15.61,12.16-30.97,17.68-46.66c1.95-5.54,5.94-4.06,9.59-4.95c4.17-1.03,5,1.93,6,4.52c6.11,15.79,12.19,31.59,18.04,47.48
		c0.81,2.19,3.9,5.58-0.85,7.03c-3.16,0.96-6.36,0.38-7.94-3.29c-0.23-0.53-0.65-1.02-0.72-1.56
		C572.61,85.2,567.1,82.13,558.15,84.57z"/>
	<path class="st9" d="M443.23,80.82c0,4.6-0.05,9.21,0.02,13.81c0.04,2.96-1.27,6.28-4.12,4.83c-7.52-3.81-14.34,1.13-21.56,0.59
		c-9.98-0.75-14.29-3.82-14.47-11.99c-0.2-9.73,3.71-13.73,14.15-14.25c3.45-0.17,6.91,0.07,10.36-0.1c2.64-0.13,6.41,1.09,6.5-3.42
		c0.08-4.06-2.56-6.52-6.43-6.73c-4.86-0.27-9.8-0.25-14.61,0.41c-2.68,0.37-4.49,0.53-5.4-2.3c-1.11-3.48,1.16-4.51,3.86-5.37
		c8.58-2.75,17.13-2.14,25.32,1.01c4.28,1.65,6.12,5.94,6.28,10.56c0.15,4.31,0.03,8.63,0.03,12.94
		C443.18,80.82,443.2,80.82,443.23,80.82z"/>
	<path class="st10" d="M787.77,74.26c0-6.06-0.3-12.14,0.08-18.17c0.38-6.01-1.91-8.65-7.95-8.02c-1.71,0.18-3.46,0.07-5.19-0.01
		c-2.53-0.11-5.54,0.41-5.81-3.43c-0.29-4.07,2.84-4.89,5.7-4.93c12.41-0.18,24.82-0.17,37.22,0.01c2.59,0.04,5.22,1.01,5.21,4.53
		c-0.01,3.87-2.8,3.61-5.44,3.83c-13.51,1.11-13.51,1.13-13.51,15.05c0,10.1-0.03,20.2,0,30.29c0.01,3.36-0.02,6.24-4.79,6.37
		c-5.02,0.14-5.64-2.52-5.55-6.49C787.88,86.96,787.78,80.61,787.77,74.26z"/>
	<path class="st11" d="M335.45,41.73c4.44,11.21,8.04,20.25,11.6,29.3c0.7,1.78,0.66,4.03-1.41,4.19
		c-6.86,0.55-13.83,1.26-20.6-0.39c-1.93-0.47-1.2-2.87-0.57-4.52C327.86,61.48,331.25,52.65,335.45,41.73z"/>
	<path class="st12" d="M486.56,69.97c0-3.17-0.45-6.43,0.11-9.5c0.81-4.4-3.5-11.08,5.08-12.37c11.38-1.72,21.57,2.14,23.54,9.5
		c2.11,7.87,2.2,16,0.08,23.87c-2.19,8.12-21.26,14.06-27.48,8.86c-1.52-1.27-1.31-3.1-1.32-4.8
		C486.53,80.35,486.55,75.16,486.56,69.97z"/>
	<path class="st13" d="M606.17,69.93c-0.01-3.17-0.45-6.42,0.1-9.49c0.79-4.41-3.43-11.07,5.12-12.35
		c12.21-1.82,22.04,2.22,23.7,10.36c1.49,7.33,1.76,14.89,0.08,22.24c-1.98,8.63-21.28,15.17-27.72,9.61
		c-1.49-1.28-1.25-3.13-1.26-4.82C606.15,80.3,606.17,75.12,606.17,69.93z"/>
	<path class="st14" d="M733.48,70.61c-5.89,1.47-8.34-1.9-7.98-9.94c0.57-12.57,0.12-12.59,10.27-12.63
		c13.63-0.05,16.74,2.48,15.99,12.87C750.98,71.88,742.61,69.81,733.48,70.61z"/>
	<path class="st15" d="M678.49,49.81c3.21,8.26,5.34,14.11,7.77,19.83c2.04,4.8,0.12,5.89-4.44,6.15
		c-14.47,0.85-14.74,0.59-9.02-12.52C674.38,59.63,675.89,55.95,678.49,49.81z"/>
	<path class="st16" d="M557.36,49.86c3.55,8.33,6.07,14.61,8.89,20.76c1.9,4.14,0.08,4.76-3.61,5.07
		c-14.21,1.18-14.77,0.56-9.99-12.94C553.89,59.25,555.2,55.77,557.36,49.86z"/>
	<path class="st17" d="M423.91,92.73c-6.99,0.32-11.44-0.67-11.76-6.22c-0.38-6.55,4.95-5.76,9.22-5.9
		c0.58-0.02,1.21-0.16,1.72,0.02c3.73,1.34,10.86-3.42,10.83,4.09C433.89,91.39,427.27,92.33,423.91,92.73z"/>
</g>
</svg>
